<?xml version="1.0" encoding="utf-8"?>
<!-- Generator: Adobe Illustrator 19.0.0, SVG Export Plug-In . SVG Version: 6.00 Build 0)  -->
<svg version="1.1" id="Layer_1" xmlns="http://www.w3.org/2000/svg" xmlns:xlink="http://www.w3.org/1999/xlink" x="0px" y="0px"
	 viewBox="0 0 301.3 297.2" style="enable-background:new 0 0 301.3 297.2;" xml:space="preserve">
<style type="text/css">
	.st0{fill:#3A3A3A;}
</style>
<g id="XMLID_29_">
	<g id="XMLID_65_">
		<g id="XMLID_90_">
			<path id="XMLID_27_" class="st0" d="M259.7,219.1c-0.5,0-1-0.4-1.2-0.9c-0.2-0.7,0.2-1.3,0.9-1.5c17.4-4.2,28.3-25.5,27.5-42.7
				c-0.7-15.6-9.8-32.1-27.2-48.9c-7.9-7.7-16.9-14.6-27.6-21.2c-17.3-10.7-36.3-18.2-54.6-25.4c-18.9-7.5-38.4-15.2-56.3-26.4
				c-3.2-2-5.2-5.3-5-8.2c0.1-1.6,1-3.9,4.3-5.5c0.6-0.3,1.3,0,1.6,0.6c0.3,0.6,0,1.3-0.6,1.6c-1.8,0.8-2.8,2-2.9,3.4
				c-0.1,2,1.5,4.5,3.9,6c17.7,11.1,37.1,18.8,55.9,26.2c18.4,7.3,37.5,14.8,55,25.6c10.8,6.6,19.9,13.7,28,21.5
				c17.8,17.3,27.2,34.3,27.9,50.6c0.8,18.2-10.8,40.7-29.4,45.2C259.9,219,259.8,219.1,259.7,219.1z"/>
		</g>
		<g id="XMLID_66_">
			<g id="XMLID_88_">
				<circle id="XMLID_26_" class="st0" cx="286.2" cy="223.3" r="3.7"/>
			</g>
			<g id="XMLID_86_">
				<path id="XMLID_25_" class="st0" d="M240.6,242c-0.2,0-0.5-0.1-0.7-0.2c-0.4-0.4-0.5-1-0.1-1.5c0.1-0.1,6-7,9.9-8.5
					c2.9-1.1,6-1.3,8.8-1.4c1.1,0,2.2-0.1,3.3-0.1c1.7-0.1,3.5-0.2,5.2-0.2c0,0,0,0,0,0c0.6,0,1,0.5,1,1c0,0.6-0.5,1-1,1
					c-1.7,0-3.4,0.1-5.1,0.2c-1.1,0.1-2.2,0.1-3.3,0.1c-2.6,0.1-5.5,0.3-8.1,1.3c-2.8,1.1-7.6,6.2-9.1,7.9
					C241.2,241.9,240.9,242,240.6,242z"/>
			</g>
			<g id="XMLID_84_">
				<path id="XMLID_24_" class="st0" d="M260.1,260.8c-0.5,0-1-0.4-1-1c-0.1-1.3-0.3-2.5-0.6-3.9c-0.5-2.3-1-4.6-0.5-7.1
					c1.1-5.7,5.6-9.1,9.9-12.4l0.8-0.6c0.5-0.3,1.1-0.3,1.4,0.2c0.3,0.5,0.3,1.1-0.2,1.4l-0.8,0.6c-4.2,3.2-8.2,6.3-9.1,11.2
					c-0.4,2.1,0,4.1,0.5,6.3c0.3,1.4,0.6,2.8,0.7,4.2C261.1,260.2,260.7,260.7,260.1,260.8C260.1,260.8,260.1,260.8,260.1,260.8z"/>
			</g>
			<g id="XMLID_82_">
				<path id="XMLID_23_" class="st0" d="M282.9,228.5c-0.4,0-0.8-0.3-1-0.7c-1-2.8-4.9-3.2-8.2-3.6c-1.3-0.1-2.5-0.3-3.5-0.5
					c-1.2-0.3-11.6-3-12.2-6.5c-0.1-0.6,0.3-1.1,0.8-1.2c0.5-0.1,1.1,0.3,1.2,0.8c0.2,1.3,5.9,3.7,10.7,4.9c0.9,0.2,2,0.4,3.3,0.5
					c3.8,0.4,8.5,1,10,4.9c0.2,0.5-0.1,1.1-0.6,1.3C283.1,228.5,283,228.5,282.9,228.5z"/>
			</g>
			<g id="XMLID_80_">
				<path id="XMLID_22_" class="st0" d="M280.1,228.2c-0.1,0-0.3-0.1-0.4-0.2c-0.2-0.2-0.3-0.6,0-0.9c0.3-0.3,0.3-0.5,0.2-0.7
					c-0.1-0.8-1.3-1.7-2.2-2.3c-0.3-0.2-0.4-0.5-0.2-0.8c0.2-0.3,0.5-0.4,0.8-0.2c0.6,0.3,2.6,1.6,2.9,3.1c0.1,0.6-0.1,1.2-0.6,1.7
					C280.4,228.1,280.3,228.2,280.1,228.2z"/>
			</g>
			<g id="XMLID_78_">
				<path id="XMLID_21_" class="st0" d="M258.2,232.6c1.8-0.2,5.8-0.1,7,1.6c1.5,2.1-1.3,4.9-2.7,6.8c0.7-0.6,3.7-2.2,4.4-2.4
					c0.9-0.3,1.5-0.8,2.1-1.6c1.1-1.3,2.2-3.6,0.5-5c-1.7-1.4-5.2-1-7-0.1"/>
			</g>
			<g id="XMLID_76_">
				<path id="XMLID_20_" class="st0" d="M283,226c-0.7-0.5-0.8-0.2-1.6,0.2c-1.3,0.6-2.6,1.2-3.9,1.7c-2.1,0.8-4.3,1.5-6.5,1.9
					c-0.8,0.1-1.6,0.2-2.4,0.2c-0.8,0.1-2-0.1-2.4,0.6c-0.5,1,0.5,1.5,1.3,1.4c0,0,3.8-0.1,1.2,3.4c-0.7,1,0.3,1.6,1.2,1.6
					c-0.1,0.1-0.1,0.2-0.2,0.2c0.6-1,3.7-0.8,4.7-1c0.4-0.1,0.8-0.2,1.2-0.3c1.8-0.5,3.5-1.3,5-2.3c1.5-1,2.6-2,3.3-3.7
					C284.5,228.7,284.3,227,283,226z"/>
			</g>
			<g id="XMLID_71_">
				<g id="XMLID_74_">
					<path id="XMLID_19_" class="st0" d="M277.1,232.9c-0.3,0-0.6-0.1-0.8-0.4c-1.2-1.6-3.9-3.4-6.5-5.1c-3.6-2.4-6.9-4.7-7.8-7
						c-0.2-0.5,0.1-1.1,0.6-1.3c0.5-0.2,1.1,0.1,1.3,0.6c0.6,1.7,4,4,7,6c2.8,1.9,5.5,3.7,6.9,5.5c0.4,0.4,0.3,1.1-0.2,1.5
						C277.5,232.8,277.3,232.9,277.1,232.9z"/>
				</g>
				<g id="XMLID_72_">
					<path id="XMLID_18_" class="st0" d="M276.5,229.3c-1.9,0-3.6-0.6-4.9-1.7c-0.3-0.2-0.3-0.6-0.1-0.9c0.2-0.3,0.6-0.3,0.9-0.1
						c1.2,1,2.9,1.5,4.7,1.4c0.3,0,0.6,0.2,0.7,0.6c0,0.3-0.2,0.6-0.6,0.7C277,229.3,276.7,229.3,276.5,229.3z"/>
				</g>
			</g>
			<g id="XMLID_69_">
				<path id="XMLID_17_" class="st0" d="M266.8,239.4c-0.2,0-0.5-0.1-0.6-0.4c-0.1-0.3,0-0.7,0.3-0.8c0.6-0.2,1-0.6,1.5-1
					c0.5-0.4,1.1-0.8,1.8-1.1c1-0.4,2-0.6,3-0.8c1-0.2,1.9-0.4,2.8-0.8c0.3-0.1,0.7,0,0.8,0.3c0.1,0.3,0,0.7-0.3,0.8
					c-1,0.4-2.1,0.7-3.1,0.9c-1,0.2-1.9,0.4-2.7,0.7c-0.5,0.2-1,0.6-1.5,1c-0.5,0.4-1.1,0.8-1.8,1.1
					C267,239.4,266.9,239.4,266.8,239.4z"/>
			</g>
			<g id="XMLID_67_">
				<path id="XMLID_16_" class="st0" d="M264,242.3c0,0,7.3-5.3,11.6-6.2l-2.5-1.8l-4.4,1.4l-3,3.8l-1.6,2.3V242.3z"/>
			</g>
		</g>
	</g>
	<g id="XMLID_58_">
		<path id="XMLID_63_" class="st0" d="M9.6,10.2H4.2V6.6h14.8v3.6h-5.4v14.2H9.6V10.2z"/>
		<path id="XMLID_61_" class="st0" d="M21.9,6.6h3.9v7.1h7.2V6.6H37v17.8h-3.9v-7.2h-7.2v7.2h-3.9V6.6z"/>
		<path id="XMLID_59_" class="st0" d="M41.3,6.6h13.5V10h-9.6v3.6h8.4v3.5h-8.4v3.7h9.7v3.5H41.3V6.6z"/>
	</g>
	<g id="XMLID_55_">
		<path id="XMLID_56_" class="st0" d="M4.2,65v-0.2C4.2,45.7,18.4,30,38.6,30c12.4,0,19.9,4.2,26,10.4l-9.2,10.9
			c-5.1-4.7-10.3-7.6-16.9-7.6c-11.1,0-19.1,9.4-19.1,20.9v0.2c0,11.5,7.8,21.1,19.1,21.1c7.5,0,12.2-3.1,17.3-7.9l9.2,9.5
			c-6.8,7.4-14.3,12-27.1,12C18.7,99.6,4.2,84.3,4.2,65z"/>
	</g>
	<g id="XMLID_52_">
		<path id="XMLID_53_" class="st0" d="M68.9,33.1h14.5v53.8h32.9v13.4H68.9V33.1z"/>
	</g>
	<g id="XMLID_49_">
		<path id="XMLID_50_" class="st0" d="M120.2,33.1h14.5v67.2h-14.5V33.1z"/>
	</g>
	<g id="XMLID_46_">
		<path id="XMLID_47_" class="st0" d="M68.6,104.1h15.6l17.3,28.4l17.3-28.4h15.6v67.2h-14.4v-43.9l-18.6,28.7h-0.4l-18.4-28.4v43.6
			H68.6V104.1z"/>
	</g>
	<g id="XMLID_41_">
		<path id="XMLID_42_" class="st0" d="M138.5,104.2h30.6c7.5,0,13.5,2.1,17.2,6c3,3.1,4.5,6.8,4.5,11.4v0.2c0,7.6-4,11.8-8.7,14.5
			c7.6,3,12.3,7.5,12.3,16.5v0.2c0,12.3-9.8,18.4-24.7,18.4h-31.4V104.2z M176.5,124c0-4.4-3.4-6.9-9.5-6.9h-14.3v14.2H166
			c6.4,0,10.5-2.1,10.5-7.1V124z M169.4,143.6h-16.8v14.8h17.2c6.4,0,10.3-2.3,10.3-7.3v-0.2C180.1,146.4,176.8,143.6,169.4,143.6z"
			/>
	</g>
	<g id="XMLID_37_">
		<path id="XMLID_38_" class="st0" d="M192.2,175.2h30.2c8.4,0,14.9,2.4,19.2,6.8c3.7,3.7,5.7,9,5.7,15.4v0.2
			c0,10.9-5.7,17.7-14.1,20.8l16.1,24h-17l-14.1-21.5h-11.4v21.5h-14.5V175.2z M221.4,207.8c7.1,0,11.1-3.8,11.1-9.5v-0.2
			c0-6.3-4.3-9.6-11.4-9.6h-14.4v19.3H221.4z"/>
	</g>
	<g id="XMLID_34_">
		<path id="XMLID_35_" class="st0" d="M138.5,175.2h49.8v13.2H153V202h31.1v13.2H153v14.1h35.8v13.2h-50.2V175.2z"/>
	</g>
	<g id="XMLID_32_">
		<polygon id="XMLID_2_" class="st0" points="282,292.6 233.4,218.1 218,220.7 264.9,292.6 		"/>
	</g>
	<g id="XMLID_30_">
		<path id="XMLID_1_" class="st0" d="M274.1,199.4"/>
	</g>
</g>
</svg>
